REM DIRINDEX 1\4,1\2\5,1\2\6,1\2\7,1\3\8,1\3\9,1\3\10,1\3\11
REM DIRNAME cjc108,folder01,folder02,folder03,folder04,folder05,folder06,folder07,folder08,folder09,folder10
TITLE ""
FILE "t_k_302-314.mp3" MP3
  TRACK 01 AUDIO
    TITLE "5:cjc108_0907"
    INDEX 01 00:00:00
  TRACK 02 AUDIO
    TITLE "0:"
    INDEX 01 00:01:03
  TRACK 03 AUDIO
    TITLE "6:cjc108_0908"
    INDEX 01 00:01:11
  TRACK 04 AUDIO
    TITLE "0:"
    INDEX 01 00:02:12
  TRACK 05 AUDIO
    TITLE "7:cjc108_0909"
    INDEX 01 00:02:28
  TRACK 06 AUDIO
    TITLE "0:"
    INDEX 01 00:08:11
  TRACK 07 AUDIO
    TITLE "5:cjc108_0910"
    INDEX 01 00:09:14
  TRACK 08 AUDIO
    TITLE "0:"
    INDEX 01 00:10:33
  TRACK 09 AUDIO
    TITLE "6:cjc108_0911"
    INDEX 01 00:10:49
  TRACK 10 AUDIO
    TITLE "0:"
    INDEX 01 00:12:54
  TRACK 11 AUDIO
    TITLE "7:cjc108_0912"
    INDEX 01 00:12:71
  TRACK 12 AUDIO
    TITLE "0:"
    INDEX 01 00:19:60
  TRACK 13 AUDIO
    TITLE "5:cjc108_0913"
    INDEX 01 00:20:51
  TRACK 14 AUDIO
    TITLE "0:"
    INDEX 01 00:22:03
  TRACK 15 AUDIO
    TITLE "6:cjc108_0914"
    INDEX 01 00:22:19
  TRACK 16 AUDIO
    TITLE "0:"
    INDEX 01 00:24:35
  TRACK 17 AUDIO
    TITLE "7:cjc108_0915"
    INDEX 01 00:24:49
  TRACK 18 AUDIO
    TITLE "0:"
    INDEX 01 00:31:18
  TRACK 19 AUDIO
    TITLE "5:cjc108_0916"
    INDEX 01 00:32:00
  TRACK 20 AUDIO
    TITLE "0:"
    INDEX 01 00:33:38
  TRACK 21 AUDIO
    TITLE "6:cjc108_0917"
    INDEX 01 00:33:58
  TRACK 22 AUDIO
    TITLE "0:"
    INDEX 01 00:35:64
  TRACK 23 AUDIO
    TITLE "7:cjc108_0918"
    INDEX 01 00:36:03
  TRACK 24 AUDIO
    TITLE "0:"
    INDEX 01 00:41:63
  TRACK 25 AUDIO
    TITLE "5:cjc108_0919"
    INDEX 01 00:42:51
  TRACK 26 AUDIO
    TITLE "0:"
    INDEX 01 00:43:72
  TRACK 27 AUDIO
    TITLE "6:cjc108_0920"
    INDEX 01 00:44:12
  TRACK 28 AUDIO
    TITLE "0:"
    INDEX 01 00:45:33
  TRACK 29 AUDIO
    TITLE "7:cjc108_0921"
    INDEX 01 00:45:49
  TRACK 30 AUDIO
    TITLE "0:"
    INDEX 01 00:50:74
  TRACK 31 AUDIO
    TITLE "5:cjc108_0922"
    INDEX 01 00:51:73
  TRACK 32 AUDIO
    TITLE "0:"
    INDEX 01 00:53:15
  TRACK 33 AUDIO
    TITLE "6:cjc108_0923"
    INDEX 01 00:53:31
  TRACK 34 AUDIO
    TITLE "0:"
    INDEX 01 00:55:30
  TRACK 35 AUDIO
    TITLE "7:cjc108_0924"
    INDEX 01 00:55:42
  TRACK 36 AUDIO
    TITLE "0:"
    INDEX 01 01:01:36
  TRACK 37 AUDIO
    TITLE "5:cjc108_0925"
    INDEX 01 01:02:26
  TRACK 38 AUDIO
    TITLE "0:"
    INDEX 01 01:03:20
  TRACK 39 AUDIO
    TITLE "6:cjc108_0926"
    INDEX 01 01:03:41
  TRACK 40 AUDIO
    TITLE "0:"
    INDEX 01 01:05:34
  TRACK 41 AUDIO
    TITLE "7:cjc108_0927"
    INDEX 01 01:05:52
  TRACK 42 AUDIO
    TITLE "0:"
    INDEX 01 01:11:41
  TRACK 43 AUDIO
    TITLE "5:cjc108_0928"
    INDEX 01 01:12:19
  TRACK 44 AUDIO
    TITLE "0:"
    INDEX 01 01:13:26
  TRACK 45 AUDIO
    TITLE "6:cjc108_0929"
    INDEX 01 01:13:30
  TRACK 46 AUDIO
    TITLE "0:"
    INDEX 01 01:15:07
  TRACK 47 AUDIO
    TITLE "7:cjc108_0930"
    INDEX 01 01:15:33
  TRACK 48 AUDIO
    TITLE "0:"
    INDEX 01 01:19:36
  TRACK 49 AUDIO
    TITLE "5:cjc108_0931"
    INDEX 01 01:20:20
  TRACK 50 AUDIO
    TITLE "0:"
    INDEX 01 01:21:45
  TRACK 51 AUDIO
    TITLE "6:cjc108_0932"
    INDEX 01 01:21:63
  TRACK 52 AUDIO
    TITLE "0:"
    INDEX 01 01:23:05
  TRACK 53 AUDIO
    TITLE "7:cjc108_0933"
    INDEX 01 01:23:26
  TRACK 54 AUDIO
    TITLE "0:"
    INDEX 01 01:28:35
  TRACK 55 AUDIO
    TITLE "5:cjc108_0934"
    INDEX 01 01:29:15
  TRACK 56 AUDIO
    TITLE "0:"
    INDEX 01 01:30:28
  TRACK 57 AUDIO
    TITLE "6:cjc108_0935"
    INDEX 01 01:30:40
  TRACK 58 AUDIO
    TITLE "0:"
    INDEX 01 01:32:33
  TRACK 59 AUDIO
    TITLE "7:cjc108_0936"
    INDEX 01 01:32:43
  TRACK 60 AUDIO
    TITLE "0:"
    INDEX 01 01:37:34
  TRACK 61 AUDIO
    TITLE "5:cjc108_0937"
    INDEX 01 01:38:28
  TRACK 62 AUDIO
    TITLE "0:"
    INDEX 01 01:39:47
  TRACK 63 AUDIO
    TITLE "6:cjc108_0938"
    INDEX 01 01:39:51
  TRACK 64 AUDIO
    TITLE "0:"
    INDEX 01 01:42:06
  TRACK 65 AUDIO
    TITLE "7:cjc108_0939"
    INDEX 01 01:42:20
  TRACK 66 AUDIO
    TITLE "0:"
    INDEX 01 01:47:66
  TRACK 67 AUDIO
    TITLE "5:cjc108_0940"
    INDEX 01 01:48:54
  TRACK 68 AUDIO
    TITLE "0:"
    INDEX 01 01:49:63
  TRACK 69 AUDIO
    TITLE "6:cjc108_0941"
    INDEX 01 01:50:02
  TRACK 70 AUDIO
    TITLE "0:"
    INDEX 01 01:51:09
  TRACK 71 AUDIO
    TITLE "7:cjc108_0942"
    INDEX 01 01:51:28
  TRACK 72 AUDIO
    TITLE "0:"
    INDEX 01 01:55:36
  TRACK 73 AUDIO
    TITLE "5:cjc108_0943"
    INDEX 01 01:56:26
  TRACK 74 AUDIO
    TITLE "0:"
    INDEX 01 01:57:45
  TRACK 75 AUDIO
    TITLE "6:cjc108_0944"
    INDEX 01 01:57:66
  TRACK 76 AUDIO
    TITLE "0:"
    INDEX 01 02:00:02
  TRACK 77 AUDIO
    TITLE "7:cjc108_0945"
    INDEX 01 02:00:24
  TRACK 78 AUDIO
    TITLE "0:"
    INDEX 01 02:07:14
